<svg aria-hidden="true" style="width:0;height:0;position:absolute;overflow:hidden" xmlns="http://www.w3.org/2000/svg"><defs><symbol id="account-icon" viewBox="0 0 32 32"><path d="M16 0h.009c2.203 0 4.301.446 6.21 1.253l-.105-.039c3.938 1.667 7.008 4.741 8.63 8.577l.04.105.026.063c.753 1.79 1.19 3.87 1.19 6.053 0 2.207-.447 4.309-1.256 6.221l.039-.105c-2.468 5.844-8.152 9.87-14.776 9.87-2.205 0-4.306-.446-6.217-1.253l.105.039a16.033 16.033 0 0 1-5.208-3.471 16.029 16.029 0 0 1-3.434-5.088l-.04-.105-.023-.063c-.751-1.79-1.188-3.87-1.188-6.052 0-2.204.445-4.304 1.251-6.215l-.039.105a16.029 16.029 0 0 1 8.562-8.642l.168-.063C11.733.437 13.813 0 15.995 0h.007zm-3.297 20.805a4.386 4.386 0 0 1-.341-.41l-.008-.012c-.677-.927-1.284-1.974-1.893-2.951-.443-.651-.674-1.232-.674-1.698s.26-1.076.781-1.208a25.51 25.51 0 0 1-.071-1.93c0-.396.009-.789.026-1.18l-.002.056c.033-.287.088-.547.164-.797l-.008.031a4.448 4.448 0 0 1 1.954-2.499l.02-.011a4.937 4.937 0 0 1 1.035-.51l.035-.011c.674-.26.349-1.279 1.091-1.302 1.734-.036 4.594 1.44 5.708 2.659a4.386 4.386 0 0 1 1.141 2.86v.005l-.07 2.753c.31.079.549.318.626.622l.001.006c.094.372 0 .883-.326 1.604 0 .023-.023.023-.023.047-.716 1.18-1.464 2.547-2.286 3.646-.414.552-.755.456-.401.984 1.68 2.31 4.995 1.99 7.031 3.529a13.647 13.647 0 0 0 3.445-9.09c0-1.86-.37-3.634-1.041-5.251l.033.091-.023-.052a13.785 13.785 0 0 0-2.964-4.448 13.663 13.663 0 0 0-9.679-4.002c-1.862 0-3.637.371-5.255 1.044l.091-.033-.055.023a13.771 13.771 0 0 0-4.427 2.968 13.663 13.663 0 0 0-4.002 9.679c0 1.862.371 3.637 1.044 5.255l-.033-.091.023.055a13.747 13.747 0 0 0 2.421 3.857l-.012-.014c2.044-1.539 5.359-1.219 7.031-3.529.292-.438.216-.396-.115-.745z"/></symbol><symbol id="icon-heart" viewBox="0 0 32 32"><path d="m16 30.583-2.24-2.24C5.44 20.983 0 16.023 0 9.943c0-4.96 3.84-8.8 8.8-8.8 2.72 0 5.44 1.28 7.2 3.36 1.76-2.08 4.48-3.36 7.2-3.36 4.96 0 8.8 3.84 8.8 8.8 0 6.08-5.44 11.04-13.76 18.4L16 30.583z"/></symbol><symbol id="icon-search" viewBox="0 0 32 32"><path fill="none" stroke="#fff" style="stroke:var(--color2,#fff)" stroke-linejoin="round" stroke-linecap="round" stroke-width="2.667" d="M14.667 25.333c5.891 0 10.667-4.776 10.667-10.667S20.558 3.999 14.667 3.999 4 8.775 4 14.666s4.776 10.667 10.667 10.667zM28 28.001l-5.8-5.8"/></symbol><symbol id="icon-film" viewBox="0 0 32 32"><path fill="none" stroke="#fff" style="stroke:var(--color1,#fff)" stroke-linejoin="round" stroke-linecap="round" stroke-width="2.667" d="M26.427 2.667H5.574a2.907 2.907 0 0 0-2.907 2.907v20.853a2.907 2.907 0 0 0 2.907 2.907h20.853a2.907 2.907 0 0 0 2.907-2.907V5.574a2.907 2.907 0 0 0-2.907-2.907zM9.333 2.667v26.667M22.667 2.667v26.667M2.667 16h26.667M2.667 9.333h6.667M2.667 22.667h6.667M22.667 22.667h6.667M22.667 9.333h6.667"/></symbol><symbol id="icon-close" viewBox="0 0 32 32"><path d="m26.667 7.303-1.97-1.97-7.808 7.808-7.808-7.808-1.97 1.97 7.808 7.808-7.808 7.808 1.97 1.97 7.808-7.808 7.808 7.808 1.97-1.97-7.808-7.808 7.808-7.808z"/></symbol><symbol id="icon-arrow-right" viewBox="0 0 32 32"><path d="m19.414 27.414 10-10a2 2 0 0 0 0-2.828l-10-10a2 2 0 1 0-2.828 2.828L23.172 14H4a2 2 0 1 0 0 4h19.172l-6.586 6.586c-.39.39-.586.902-.586 1.414s.195 1.024.586 1.414a2 2 0 0 0 2.828 0z"/></symbol><symbol id="icon-arrow-left" viewBox="0 0 32 32"><path d="m12.586 27.414-10-10a2 2 0 0 1 0-2.828l10-10a2 2 0 1 1 2.828 2.828L8.828 14H28a2 2 0 1 1 0 4H8.828l6.586 6.586c.39.39.586.902.586 1.414s-.195 1.024-.586 1.414a2 2 0 0 1-2.828 0z"/></symbol><symbol id="icon-icons8-log-in-24" viewBox="0 0 32 32"><path d="M14.667 3.867c0 .8 2.667 1.467 6 1.467h6v21.333h-6c-3.333 0-6 .667-6 1.467s2.8 1.2 7.067.933l6.933-.4V3.334l-6.933-.4c-4.267-.267-7.067.133-7.067.933z"/><path d="M16.4 12c.667 2.4 0 2.667-6.533 2.667-4 0-7.2.533-7.2 1.333 0 .667 3.2 1.333 7.2 1.333 6.533 0 7.2.267 6.533 2.667-.933 3.333 1.2 3.467 4 .267 2.933-3.2 2.8-6-.133-8.667-3.333-3.067-4.667-2.8-3.867.4z"/></symbol><symbol id="icon-enter" viewBox="0 0 32 32"><path d="M12 16H2v-4h10V8l6 6-6 6zM32 0v26l-12 6v-6H8v-8h2v6h10V6l8-4H10v8H8V0z"/></symbol><symbol id="account-icon" viewBox="0 0 32 32"><path d="M16 0h.009c2.203 0 4.301.446 6.21 1.253l-.105-.039c3.938 1.667 7.008 4.741 8.63 8.577l.04.105.026.063c.753 1.79 1.19 3.87 1.19 6.053 0 2.207-.447 4.309-1.256 6.221l.039-.105c-2.468 5.844-8.152 9.87-14.776 9.87-2.205 0-4.306-.446-6.217-1.253l.105.039a16.033 16.033 0 0 1-5.208-3.471 16.029 16.029 0 0 1-3.434-5.088l-.04-.105-.023-.063c-.751-1.79-1.188-3.87-1.188-6.052 0-2.204.445-4.304 1.251-6.215l-.039.105a16.029 16.029 0 0 1 8.562-8.642l.168-.063C11.733.437 13.813 0 15.995 0h.007zm-3.297 20.805a4.386 4.386 0 0 1-.341-.41l-.008-.012c-.677-.927-1.284-1.974-1.893-2.951-.443-.651-.674-1.232-.674-1.698s.26-1.076.781-1.208a25.51 25.51 0 0 1-.071-1.93c0-.396.009-.789.026-1.18l-.002.056c.033-.287.088-.547.164-.797l-.008.031a4.448 4.448 0 0 1 1.954-2.499l.02-.011a4.937 4.937 0 0 1 1.035-.51l.035-.011c.674-.26.349-1.279 1.091-1.302 1.734-.036 4.594 1.44 5.708 2.659a4.386 4.386 0 0 1 1.141 2.86v.005l-.07 2.753c.31.079.549.318.626.622l.001.006c.094.372 0 .883-.326 1.604 0 .023-.023.023-.023.047-.716 1.18-1.464 2.547-2.286 3.646-.414.552-.755.456-.401.984 1.68 2.31 4.995 1.99 7.031 3.529a13.647 13.647 0 0 0 3.445-9.09c0-1.86-.37-3.634-1.041-5.251l.033.091-.023-.052a13.785 13.785 0 0 0-2.964-4.448 13.663 13.663 0 0 0-9.679-4.002c-1.862 0-3.637.371-5.255 1.044l.091-.033-.055.023a13.771 13.771 0 0 0-4.427 2.968 13.663 13.663 0 0 0-4.002 9.679c0 1.862.371 3.637 1.044 5.255l-.033-.091.023.055a13.747 13.747 0 0 0 2.421 3.857l-.012-.014c2.044-1.539 5.359-1.219 7.031-3.529.292-.438.216-.396-.115-.745z"/></symbol></defs></svg>