<svg aria-hidden="true" style="width:0;height:0;position:absolute;overflow:hidden" xmlns="http://www.w3.org/2000/svg"><defs><symbol id="account-icon" viewBox="0 0 32 32"><path d="M16 0h.009c2.203 0 4.301.446 6.21 1.253l-.105-.039c3.938 1.667 7.008 4.741 8.63 8.577l.04.105.026.063c.753 1.79 1.19 3.87 1.19 6.053 0 2.207-.447 4.309-1.256 6.221l.039-.105c-2.468 5.844-8.152 9.87-14.776 9.87-2.205 0-4.306-.446-6.217-1.253l.105.039a16.033 16.033 0 0 1-5.208-3.471 16.029 16.029 0 0 1-3.434-5.088l-.04-.105-.023-.063c-.751-1.79-1.188-3.87-1.188-6.052 0-2.204.445-4.304 1.251-6.215l-.039.105a16.029 16.029 0 0 1 8.562-8.642l.168-.063C11.733.437 13.813 0 15.995 0h.007zm-3.297 20.805a4.386 4.386 0 0 1-.341-.41l-.008-.012c-.677-.927-1.284-1.974-1.893-2.951-.443-.651-.674-1.232-.674-1.698s.26-1.076.781-1.208a25.51 25.51 0 0 1-.071-1.93c0-.396.009-.789.026-1.18l-.002.056c.033-.287.088-.547.164-.797l-.008.031a4.448 4.448 0 0 1 1.954-2.499l.02-.011a4.937 4.937 0 0 1 1.035-.51l.035-.011c.674-.26.349-1.279 1.091-1.302 1.734-.036 4.594 1.44 5.708 2.659a4.386 4.386 0 0 1 1.141 2.86v.005l-.07 2.753c.31.079.549.318.626.622l.001.006c.094.372 0 .883-.326 1.604 0 .023-.023.023-.023.047-.716 1.18-1.464 2.547-2.286 3.646-.414.552-.755.456-.401.984 1.68 2.31 4.995 1.99 7.031 3.529a13.647 13.647 0 0 0 3.445-9.09c0-1.86-.37-3.634-1.041-5.251l.033.091-.023-.052a13.785 13.785 0 0 0-2.964-4.448 13.663 13.663 0 0 0-9.679-4.002c-1.862 0-3.637.371-5.255 1.044l.091-.033-.055.023a13.771 13.771 0 0 0-4.427 2.968 13.663 13.663 0 0 0-4.002 9.679c0 1.862.371 3.637 1.044 5.255l-.033-.091.023.055a13.747 13.747 0 0 0 2.421 3.857l-.012-.014c2.044-1.539 5.359-1.219 7.031-3.529.292-.438.216-.396-.115-.745z"/></symbol></defs></svg>