<svg aria-hidden="true" style="width:0;height:0;position:absolute;overflow:hidden" xmlns="http://www.w3.org/2000/svg"><defs><symbol id="sunny" viewBox="0 0 32 32"><path d="M16 6.7q-.667 0-1.117-.45t-.45-1.117v-3q0-.667.45-1.117T16 .566t1.117.45.45 1.117v3q0 .667-.45 1.117T16 6.7zm6.567 2.733q-.467-.467-.467-1.1t.467-1.1l2.1-2.133q.433-.433 1.1-.433T26.9 5.1q.467.467.467 1.1T26.9 7.3l-2.133 2.133q-.467.467-1.1.467t-1.1-.467zm4.3 8.134q-.667 0-1.117-.45T25.3 16t.45-1.117 1.117-.45h3q.667 0 1.117.45t.45 1.117-.45 1.117-1.117.45zM16 31.433q-.667 0-1.117-.45t-.45-1.117v-3q0-.667.45-1.117t1.117-.45 1.117.45.45 1.117v3q0 .667-.45 1.117t-1.117.45zm-8.767-22L5.1 7.333Q4.633 6.9 4.633 6.25T5.1 5.1q.5-.467 1.117-.467T7.3 5.1l2.133 2.133q.5.5.5 1.133t-.5 1.1q-.433.433-1.1.433t-1.1-.467zM24.667 26.9l-2.133-2.133q-.467-.467-.45-1.117t.483-1.117Q23 22.1 23.65 22.1t1.117.433l2.167 2.1q.467.467.45 1.117t-.45 1.15q-.467.467-1.133.467t-1.133-.467zM2.133 17.567q-.667 0-1.117-.45T.566 16t.45-1.117 1.117-.45h3q.667 0 1.117.45T6.7 16t-.45 1.117-1.117.45zM5.1 26.9q-.467-.467-.467-1.117t.467-1.117l2.133-2.133Q7.7 22.1 8.35 22.1t1.117.433q.467.467.467 1.133t-.467 1.133l-2.1 2.1q-.467.467-1.117.467t-1.15-.467zM16 23.8q-3.267 0-5.533-2.267T8.2 16t2.267-5.533T16 8.2t5.533 2.267T23.8 16t-2.267 5.533T16 23.8zm0-3.167q1.933 0 3.3-1.35T20.667 16 19.3 12.7 16 11.333 12.717 12.7t-1.35 3.3 1.35 3.283T16 20.633z"/></symbol><symbol id="dark" viewBox="0 0 32 32"><path d="M16 28.367q-5.167 0-8.767-3.6T3.633 16t3.6-8.783T16 3.6h.433q.233 0 .667.033-.9 1.2-1.4 2.617t-.5 2.95q0 3.167 2.233 5.4t5.433 2.233q1.5 0 2.933-.433t2.6-1.267v.833q0 5.167-3.617 8.783t-8.783 3.617zm0-3.134q2.967 0 5.267-1.75t3-4.083q-.567.267-1.283.383t-1.383.05q-3.733-.433-6.35-2.983t-3.083-6.483q-.033-.5.05-1.167t.417-1.567q-2.533.967-4.2 3.317T6.768 16q0 3.867 2.683 6.55t6.55 2.683z"/></symbol></defs></svg>