<svg aria-hidden="true" style="position: absolute; width: 0; height: 0; overflow: hidden;" version="1.1" xmlns="http://www.w3.org/2000/svg" xmlns:xlink="http://www.w3.org/1999/xlink">
<defs>
<symbol id="account-icon" viewBox="0 0 32 32">
<path d="M16 0c0.003 0 0.006 0 0.009 0 2.203 0 4.301 0.446 6.21 1.253l-0.105-0.039c3.938 1.667 7.008 4.741 8.63 8.577l0.040 0.105 0.026 0.063c0.753 1.79 1.19 3.87 1.19 6.053 0 2.207-0.447 4.309-1.256 6.221l0.039-0.105c-2.468 5.844-8.152 9.87-14.776 9.87-2.205 0-4.306-0.446-6.217-1.253l0.105 0.039c-2.027-0.847-3.757-2.020-5.208-3.471l0 0c-1.45-1.448-2.623-3.173-3.434-5.088l-0.040-0.105-0.023-0.063c-0.751-1.79-1.188-3.87-1.188-6.052 0-2.204 0.445-4.304 1.251-6.215l-0.039 0.105c0.848-2.026 2.022-3.756 3.474-5.208v0c1.448-1.45 3.173-2.623 5.088-3.434l0.168-0.063c1.789-0.753 3.869-1.19 6.051-1.19 0.002 0 0.005 0 0.007 0h-0zM12.703 20.805c-0.12-0.128-0.235-0.265-0.341-0.41l-0.008-0.012c-0.677-0.927-1.284-1.974-1.893-2.951-0.443-0.651-0.674-1.232-0.674-1.698s0.26-1.076 0.781-1.208c-0.045-0.578-0.071-1.251-0.071-1.93 0-0.396 0.009-0.789 0.026-1.18l-0.002 0.056c0.033-0.287 0.088-0.547 0.164-0.797l-0.008 0.031c0.335-1.072 1.036-1.947 1.954-2.499l0.020-0.011c0.308-0.201 0.661-0.377 1.035-0.51l0.035-0.011c0.674-0.26 0.349-1.279 1.091-1.302 1.734-0.036 4.594 1.44 5.708 2.659 0.688 0.756 1.116 1.758 1.141 2.86l0 0.005-0.070 2.753c0.31 0.079 0.549 0.318 0.626 0.622l0.001 0.006c0.094 0.372 0 0.883-0.326 1.604v0c0 0.023-0.023 0.023-0.023 0.047-0.716 1.18-1.464 2.547-2.286 3.646-0.414 0.552-0.755 0.456-0.401 0.984 1.68 2.31 4.995 1.99 7.031 3.529 2.139-2.407 3.445-5.596 3.445-9.090 0-1.86-0.37-3.634-1.041-5.251l0.033 0.091-0.023-0.052c-0.725-1.73-1.727-3.207-2.964-4.448l0 0c-2.479-2.473-5.901-4.002-9.679-4.002-1.862 0-3.637 0.371-5.255 1.044l0.091-0.033-0.055 0.023c-1.722 0.728-3.192 1.731-4.427 2.968l-0 0c-2.473 2.479-4.002 5.901-4.002 9.679 0 1.862 0.371 3.637 1.044 5.255l-0.033-0.091 0.023 0.055c0.622 1.478 1.433 2.748 2.421 3.857l-0.012-0.014c2.044-1.539 5.359-1.219 7.031-3.529 0.292-0.438 0.216-0.396-0.115-0.745z"></path>
</symbol>
</defs>
</svg>
